<svg width="962" height="189" viewBox="0 0 962 189" fill="none" xmlns="http://www.w3.org/2000/svg">
<path d="M123.05 184.5L56.897 70.8158L86.7781 19.383C90.633 12.7477 100.216 12.7477 104.071 19.383L191.272 169.477C195.145 176.143 190.335 184.5 182.625 184.5H123.05Z" fill="#7C3AED"/>
<path d="M82.7437 184.5L36.2658 104.5L26.6652 121.342L63.3583 184.5H82.7437Z" fill="#7C3AED"/>
<path d="M56.131 184.5L23.4789 126.192L2.91851 161.582C1.11405 164.688 1.11405 168.523 2.91851 171.629L7.50515 179.523C9.29499 182.604 12.5888 184.5 16.1518 184.5H56.131Z" fill="#7C3AED"/>
<path d="M251.65 150L292.9 43.65H318.85L359.65 150H331.6L300.85 60.6H310.6L279.1 150H251.65ZM276.7 131.4V110.1H335.35V131.4H276.7ZM412.234 151.65C403.234 151.65 395.284 149.8 388.384 146.1C381.584 142.3 376.284 137.05 372.484 130.35C368.684 123.65 366.784 116.05 366.784 107.55V43.65H393.484V109.5C393.484 113.3 394.284 116.6 395.884 119.4C397.584 122.1 399.834 124.2 402.634 125.7C405.534 127.1 408.734 127.8 412.234 127.8C415.834 127.8 418.984 127.1 421.684 125.7C424.384 124.2 426.534 122.1 428.134 119.4C429.734 116.7 430.534 113.45 430.534 109.65V43.65H457.534V107.7C457.534 116.2 455.634 123.8 451.834 130.5C448.034 137.1 442.734 142.3 435.934 146.1C429.234 149.8 421.334 151.65 412.234 151.65ZM500.143 150V44.4H526.993V150H500.143ZM467.593 66.75V43.65H559.543V66.75H467.593ZM571.755 150V43.65H598.605V150H571.755ZM636.855 150V43.65H663.705V150H636.855ZM587.055 106.8V84.3H646.605V106.8H587.055ZM677.393 131.4L728.693 62.25H761.093L709.793 131.4H677.393ZM677.393 150V131.4L693.443 127.5H759.893V150H677.393ZM680.093 66.15V43.65H761.093V62.25L744.893 66.15H680.093ZM775.221 150V43.65H802.071V150H775.221ZM796.521 150V127.35H854.121V150H796.521ZM796.521 106.8V84.75H848.721V106.8H796.521ZM796.521 66.3V43.65H853.221V66.3H796.521ZM899.764 111.9L859.114 43.65H889.864L920.914 99H899.314L930.364 43.65H960.514L919.564 111.9H899.764ZM896.614 150V100.95H923.464V150H896.614Z" fill="currentColor"/>
</svg>
